<svg xmlns="http://www.w3.org/2000/svg" viewBox="0 0 82.22 82.22"><defs><style>.cls-1{fill:#fff;opacity:0;}.cls-2{fill:#edb23c;}</style></defs><title>scroll2</title><g id="Слой_2" data-name="Слой 2"><g id="Слой_1-2" data-name="Слой 1"><circle class="cls-1" cx="41.11" cy="41.11" r="41.11"/><path class="cls-2" d="M66,25.21a4,4,0,0,1,.55-2.12,4.49,4.49,0,0,1,3.81-2.17,4.1,4.1,0,0,1,2.11.61,4.71,4.71,0,0,1,1.59,1.69,4.87,4.87,0,0,1,.59,1.66,3.68,3.68,0,0,1-.13,1.62l-.77-.21a3.39,3.39,0,0,0-.36-2.66,3.64,3.64,0,0,0-1.3-1.34,3.27,3.27,0,0,0-1.71-.5,3.38,3.38,0,0,0-1.78.48,3.43,3.43,0,0,0-1.31,1.28,3.24,3.24,0,0,0-.45,1.73,3.6,3.6,0,0,0,.5,1.8,3.32,3.32,0,0,0,2.1,1.66l-.21.77a3.88,3.88,0,0,1-1.47-.72,4.84,4.84,0,0,1-1.13-1.35A4.62,4.62,0,0,1,66,25.21Z"/><path class="cls-2" d="M77.36,31.63l.18.87L70.05,34,71,38.61l-.75.15-1.09-5.48Z"/><path class="cls-2" d="M78.5,42.17l0,.89-8.39-.34,0-.88Z"/><path class="cls-2" d="M69.71,48.47a4,4,0,0,1,1.93-1,4.36,4.36,0,0,1,2.26.11,4.43,4.43,0,0,1,1.92,1.2,4.06,4.06,0,0,1,1,2A4.62,4.62,0,0,1,76.66,53a4.69,4.69,0,0,1-.82,1.55,3.54,3.54,0,0,1-1.27,1l-.37-.71a3.32,3.32,0,0,0,1.7-2.07,3.69,3.69,0,0,0,.1-1.86,3.22,3.22,0,0,0-.81-1.6,3.51,3.51,0,0,0-1.55-1,3.41,3.41,0,0,0-1.84-.09,3.36,3.36,0,0,0-1.57.85,3.66,3.66,0,0,0-1,1.59,3.33,3.33,0,0,0,.22,2.67l-.7.37a3.75,3.75,0,0,1-.48-1.56,4.63,4.63,0,0,1,.22-1.75A4.52,4.52,0,0,1,69.71,48.47Z"/><path class="cls-2" d="M67.59,60.73l-.36-2.42L65.47,57l.54-.71,6.7,5.07-.54.71-4-3.06,1.08,7-.62.82-.84-5.2-6,.33.64-.84Z"/><path class="cls-2" d="M57.2,74l2.67-1.26.32.69-6.13,2.91-.33-.69,2.67-1.27-3.28-6.89.81-.38Z"/><path class="cls-2" d="M46.51,70.19a4.1,4.1,0,0,1,1.74,1.36,4.51,4.51,0,0,1,.46,4.34,4.07,4.07,0,0,1-1.42,1.69,4.62,4.62,0,0,1-2.19.79,4.5,4.5,0,0,1-2.29-.31,4,4,0,0,1-1.73-1.35,4.45,4.45,0,0,1-.47-4.36A4.21,4.21,0,0,1,42,70.66a4.92,4.92,0,0,1,4.49-.47Zm-4,1.11a3.29,3.29,0,0,0-1.12,1.38,3.47,3.47,0,0,0-.26,1.82,3.43,3.43,0,0,0,.64,1.72,3.25,3.25,0,0,0,1.38,1.11,3.66,3.66,0,0,0,1.84.26A3.74,3.74,0,0,0,46.77,77a3.37,3.37,0,0,0,1.13-1.38,3.48,3.48,0,0,0,.27-1.82A3.4,3.4,0,0,0,47.52,72a3.22,3.22,0,0,0-1.39-1.11,3.7,3.7,0,0,0-1.85-.26A3.66,3.66,0,0,0,42.54,71.3Z"/><path class="cls-2" d="M24.64,70.07l-.77-.37,1.36-2.9a4,4,0,0,1,1.59-.12,5.08,5.08,0,0,1,1.65.46,4.67,4.67,0,0,1,1.82,1.47,4,4,0,0,1,.79,2,4.47,4.47,0,0,1-1.86,4,4.09,4.09,0,0,1-2.09.71,4.61,4.61,0,0,1-2.29-.47,4.94,4.94,0,0,1-1.47-1,3.43,3.43,0,0,1-.84-1.4l.73-.27a3.47,3.47,0,0,0,1.88,2,3.75,3.75,0,0,0,1.86.38,3.34,3.34,0,0,0,1.7-.59,3.6,3.6,0,0,0,1.51-3.22A3.3,3.3,0,0,0,29.57,69a3.55,3.55,0,0,0-1.47-1.19,3.6,3.6,0,0,0-2.26-.35Z"/><path class="cls-2" d="M21.19,63a4,4,0,0,1,0,2.2,4.5,4.5,0,0,1-3.18,3,4.12,4.12,0,0,1-2.2-.11,4.56,4.56,0,0,1-2-1.26,4.61,4.61,0,0,1-1.14-2,4.11,4.11,0,0,1,0-2.2,4.45,4.45,0,0,1,3.19-3,4.08,4.08,0,0,1,2.19.1,4.5,4.5,0,0,1,1.95,1.26A4.59,4.59,0,0,1,21.19,63Zm-3.28-2.49a3.33,3.33,0,0,0-1.77-.06,3.49,3.49,0,0,0-1.61.89,3.55,3.55,0,0,0-1,1.55,3.36,3.36,0,0,0,0,1.78A3.83,3.83,0,0,0,16,67.26a3.27,3.27,0,0,0,1.78.07,3.5,3.5,0,0,0,1.62-.88,3.59,3.59,0,0,0,1-1.56,3.36,3.36,0,0,0,0-1.78,3.82,3.82,0,0,0-2.47-2.63Z"/><path class="cls-2" d="M5.71,50.58l.73,2.86-.74.19L4,47.05l.74-.19.73,2.86,7.39-1.88.22.86Z"/><path class="cls-2" d="M11.54,40.81a4.07,4.07,0,0,1-1.66,1.45,4.24,4.24,0,0,1-2.22.38,4.11,4.11,0,0,1-3.52-2.46,4.89,4.89,0,0,1,.38-4.5,4.13,4.13,0,0,1,1.66-1.44,4.2,4.2,0,0,1,2.23-.39,4.27,4.27,0,0,1,2.13.76,4.08,4.08,0,0,1,1.39,1.71,4.84,4.84,0,0,1-.39,4.49Zm-.33-4.1a3.3,3.3,0,0,0-1.14-1.37,3.52,3.52,0,0,0-1.74-.6,3.46,3.46,0,0,0-1.81.3,3.21,3.21,0,0,0-1.35,1.15,3.59,3.59,0,0,0-.6,1.75,3.64,3.64,0,0,0,.29,1.84A3.33,3.33,0,0,0,6,41.16a3.53,3.53,0,0,0,1.73.61,3.58,3.58,0,0,0,1.82-.31A3.36,3.36,0,0,0,10.9,40.3a3.53,3.53,0,0,0,.6-1.76A3.61,3.61,0,0,0,11.21,36.71Z"/><path class="cls-2" d="M9.38,22.6a2.61,2.61,0,0,1,2.29.11,2.6,2.6,0,0,1,1.5,1.74,3.81,3.81,0,0,1-.42,2.6l-1,2,2.38,1.16-.39.8L6.2,27.36l1.38-2.83A3.84,3.84,0,0,1,9.38,22.6Zm3,2.18a1.87,1.87,0,0,0-1.09-1.27,1.94,1.94,0,0,0-1.7-.1,3,3,0,0,0-1.33,1.48l-1,2,3.77,1.84,1-2A2.86,2.86,0,0,0,12.38,24.78Z"/></g></g></svg>