<svg width="1440" height="795" viewBox="0 0 1440 795" fill="none" xmlns="http://www.w3.org/2000/svg">
<path opacity="0.1" d="M-372 1L25 397.5L-372 794" stroke="url(#paint0_linear_529_430)"/>
<path opacity="0.1" d="M-255 1L142 397.5L-255 794" stroke="url(#paint1_linear_529_430)"/>
<path opacity="0.1" d="M-138 1L259 397.5L-138 794" stroke="url(#paint2_linear_529_430)"/>
<path opacity="0.1" d="M-21 1L376 397.5L-21 794" stroke="url(#paint3_linear_529_430)"/>
<path opacity="0.1" d="M96 1L493 397.5L96 794" stroke="url(#paint4_linear_529_430)"/>
<path opacity="0.1" d="M213 1L610 397.5L213 794" stroke="url(#paint5_linear_529_430)"/>
<path opacity="0.1" d="M330 1L727 397.5L330 794" stroke="url(#paint6_linear_529_430)"/>
<path opacity="0.1" d="M447 1L844 397.5L447 794" stroke="url(#paint7_linear_529_430)"/>
<path opacity="0.1" d="M564 1L961 397.5L564 794" stroke="url(#paint8_linear_529_430)"/>
<path opacity="0.1" d="M681 1L1078 397.5L681 794" stroke="url(#paint9_linear_529_430)"/>
<path opacity="0.1" d="M798 1L1195 397.5L798 794" stroke="url(#paint10_linear_529_430)"/>
<path opacity="0.1" d="M915 1L1312 397.5L915 794" stroke="url(#paint11_linear_529_430)"/>
<path opacity="0.1" d="M1032 1L1429 397.5L1032 794" stroke="url(#paint12_linear_529_430)"/>
<path opacity="0.1" d="M1149 1L1546 397.5L1149 794" stroke="url(#paint13_linear_529_430)"/>
<path opacity="0.1" d="M1266 1L1663 397.5L1266 794" stroke="url(#paint14_linear_529_430)"/>
<defs>
<linearGradient id="paint0_linear_529_430" x1="-173.5" y1="1" x2="-173.5" y2="794" gradientUnits="userSpaceOnUse">
<stop stop-color="white" stop-opacity="0"/>
<stop offset="0.489583" stop-color="white"/>
<stop offset="1" stop-color="white" stop-opacity="0"/>
</linearGradient>
<linearGradient id="paint1_linear_529_430" x1="-56.5" y1="1" x2="-56.5" y2="794" gradientUnits="userSpaceOnUse">
<stop stop-color="white" stop-opacity="0"/>
<stop offset="0.489583" stop-color="white"/>
<stop offset="1" stop-color="white" stop-opacity="0"/>
</linearGradient>
<linearGradient id="paint2_linear_529_430" x1="60.5" y1="1" x2="60.5" y2="794" gradientUnits="userSpaceOnUse">
<stop stop-color="white" stop-opacity="0"/>
<stop offset="0.489583" stop-color="white"/>
<stop offset="1" stop-color="white" stop-opacity="0"/>
</linearGradient>
<linearGradient id="paint3_linear_529_430" x1="177.5" y1="1" x2="177.5" y2="794" gradientUnits="userSpaceOnUse">
<stop stop-color="white" stop-opacity="0"/>
<stop offset="0.489583" stop-color="white"/>
<stop offset="1" stop-color="white" stop-opacity="0"/>
</linearGradient>
<linearGradient id="paint4_linear_529_430" x1="294.5" y1="1" x2="294.5" y2="794" gradientUnits="userSpaceOnUse">
<stop stop-color="white" stop-opacity="0"/>
<stop offset="0.489583" stop-color="white"/>
<stop offset="1" stop-color="white" stop-opacity="0"/>
</linearGradient>
<linearGradient id="paint5_linear_529_430" x1="411.5" y1="1" x2="411.5" y2="794" gradientUnits="userSpaceOnUse">
<stop stop-color="white" stop-opacity="0"/>
<stop offset="0.489583" stop-color="white"/>
<stop offset="1" stop-color="white" stop-opacity="0"/>
</linearGradient>
<linearGradient id="paint6_linear_529_430" x1="528.5" y1="1" x2="528.5" y2="794" gradientUnits="userSpaceOnUse">
<stop stop-color="white" stop-opacity="0"/>
<stop offset="0.489583" stop-color="white"/>
<stop offset="1" stop-color="white" stop-opacity="0"/>
</linearGradient>
<linearGradient id="paint7_linear_529_430" x1="645.5" y1="1" x2="645.5" y2="794" gradientUnits="userSpaceOnUse">
<stop stop-color="white" stop-opacity="0"/>
<stop offset="0.489583" stop-color="white"/>
<stop offset="1" stop-color="white" stop-opacity="0"/>
</linearGradient>
<linearGradient id="paint8_linear_529_430" x1="762.5" y1="1" x2="762.5" y2="794" gradientUnits="userSpaceOnUse">
<stop stop-color="white" stop-opacity="0"/>
<stop offset="0.489583" stop-color="white"/>
<stop offset="1" stop-color="white" stop-opacity="0"/>
</linearGradient>
<linearGradient id="paint9_linear_529_430" x1="879.5" y1="1" x2="879.5" y2="794" gradientUnits="userSpaceOnUse">
<stop stop-color="white" stop-opacity="0"/>
<stop offset="0.489583" stop-color="white"/>
<stop offset="1" stop-color="white" stop-opacity="0"/>
</linearGradient>
<linearGradient id="paint10_linear_529_430" x1="996.5" y1="1" x2="996.5" y2="794" gradientUnits="userSpaceOnUse">
<stop stop-color="white" stop-opacity="0"/>
<stop offset="0.489583" stop-color="white"/>
<stop offset="1" stop-color="white" stop-opacity="0"/>
</linearGradient>
<linearGradient id="paint11_linear_529_430" x1="1113.5" y1="1" x2="1113.5" y2="794" gradientUnits="userSpaceOnUse">
<stop stop-color="white" stop-opacity="0"/>
<stop offset="0.489583" stop-color="white"/>
<stop offset="1" stop-color="white" stop-opacity="0"/>
</linearGradient>
<linearGradient id="paint12_linear_529_430" x1="1230.5" y1="1" x2="1230.5" y2="794" gradientUnits="userSpaceOnUse">
<stop stop-color="white" stop-opacity="0"/>
<stop offset="0.489583" stop-color="white"/>
<stop offset="1" stop-color="white" stop-opacity="0"/>
</linearGradient>
<linearGradient id="paint13_linear_529_430" x1="1347.5" y1="1" x2="1347.5" y2="794" gradientUnits="userSpaceOnUse">
<stop stop-color="white" stop-opacity="0"/>
<stop offset="0.489583" stop-color="white"/>
<stop offset="1" stop-color="white" stop-opacity="0"/>
</linearGradient>
<linearGradient id="paint14_linear_529_430" x1="1464.5" y1="1" x2="1464.5" y2="794" gradientUnits="userSpaceOnUse">
<stop stop-color="white" stop-opacity="0"/>
<stop offset="0.489583" stop-color="white"/>
<stop offset="1" stop-color="white" stop-opacity="0"/>
</linearGradient>
</defs>
</svg>
