<svg width="1440" height="795" viewBox="0 0 1440 795" fill="none" xmlns="http://www.w3.org/2000/svg">
<path opacity="0.1" d="M-397 1L-2.38419e-06 397.5L-397 794" stroke="url(#paint0_linear_529_430)"/>
<path opacity="0.1" d="M-277 1L120 397.5L-277 794" stroke="url(#paint1_linear_529_430)"/>
<path opacity="0.1" d="M-157 1L240 397.5L-157 794" stroke="url(#paint2_linear_529_430)"/>
<path opacity="0.1" d="M-37 1L360 397.5L-37 794" stroke="url(#paint3_linear_529_430)"/>
<path opacity="0.1" d="M83 1L480 397.5L83 794" stroke="url(#paint4_linear_529_430)"/>
<path opacity="0.1" d="M203 1L600 397.5L203 794" stroke="url(#paint5_linear_529_430)"/>
<path opacity="0.1" d="M323 1L720 397.5L323 794" stroke="url(#paint6_linear_529_430)"/>
<path opacity="0.1" d="M443 1L840 397.5L443 794" stroke="url(#paint7_linear_529_430)"/>
<path opacity="0.1" d="M563 1L960 397.5L563 794" stroke="url(#paint8_linear_529_430)"/>
<path opacity="0.1" d="M683 1L1080 397.5L683 794" stroke="url(#paint9_linear_529_430)"/>
<path opacity="0.1" d="M803 1L1200 397.5L803 794" stroke="url(#paint10_linear_529_430)"/>
<path opacity="0.1" d="M923 1L1320 397.5L923 794" stroke="url(#paint11_linear_529_430)"/>
<path opacity="0.1" d="M1043 1L1440 397.5L1043 794" stroke="url(#paint12_linear_529_430)"/>
<path opacity="0.1" d="M1163 1L1560 397.5L1163 794" stroke="url(#paint13_linear_529_430)"/>
<path opacity="0.1" d="M1283 1L1680 397.5L1283 794" stroke="url(#paint14_linear_529_430)"/>
<defs>
<linearGradient id="paint0_linear_529_430" x1="-198.5" y1="1" x2="-198.5" y2="794" gradientUnits="userSpaceOnUse">
<stop stop-color="white" stop-opacity="0"/>
<stop offset="0.489583" stop-color="white"/>
<stop offset="1" stop-color="white" stop-opacity="0"/>
</linearGradient>
<linearGradient id="paint1_linear_529_430" x1="-78.5" y1="1" x2="-78.5" y2="794" gradientUnits="userSpaceOnUse">
<stop stop-color="white" stop-opacity="0"/>
<stop offset="0.489583" stop-color="white"/>
<stop offset="1" stop-color="white" stop-opacity="0"/>
</linearGradient>
<linearGradient id="paint2_linear_529_430" x1="41.5" y1="1" x2="41.5" y2="794" gradientUnits="userSpaceOnUse">
<stop stop-color="white" stop-opacity="0"/>
<stop offset="0.489583" stop-color="white"/>
<stop offset="1" stop-color="white" stop-opacity="0"/>
</linearGradient>
<linearGradient id="paint3_linear_529_430" x1="161.5" y1="1" x2="161.5" y2="794" gradientUnits="userSpaceOnUse">
<stop stop-color="white" stop-opacity="0"/>
<stop offset="0.489583" stop-color="white"/>
<stop offset="1" stop-color="white" stop-opacity="0"/>
</linearGradient>
<linearGradient id="paint4_linear_529_430" x1="281.5" y1="1" x2="281.5" y2="794" gradientUnits="userSpaceOnUse">
<stop stop-color="white" stop-opacity="0"/>
<stop offset="0.489583" stop-color="white"/>
<stop offset="1" stop-color="white" stop-opacity="0"/>
</linearGradient>
<linearGradient id="paint5_linear_529_430" x1="401.5" y1="1" x2="401.5" y2="794" gradientUnits="userSpaceOnUse">
<stop stop-color="white" stop-opacity="0"/>
<stop offset="0.489583" stop-color="white"/>
<stop offset="1" stop-color="white" stop-opacity="0"/>
</linearGradient>
<linearGradient id="paint6_linear_529_430" x1="521.5" y1="1" x2="521.5" y2="794" gradientUnits="userSpaceOnUse">
<stop stop-color="white" stop-opacity="0"/>
<stop offset="0.489583" stop-color="white"/>
<stop offset="1" stop-color="white" stop-opacity="0"/>
</linearGradient>
<linearGradient id="paint7_linear_529_430" x1="641.5" y1="1" x2="641.5" y2="794" gradientUnits="userSpaceOnUse">
<stop stop-color="white" stop-opacity="0"/>
<stop offset="0.489583" stop-color="white"/>
<stop offset="1" stop-color="white" stop-opacity="0"/>
</linearGradient>
<linearGradient id="paint8_linear_529_430" x1="761.5" y1="1" x2="761.5" y2="794" gradientUnits="userSpaceOnUse">
<stop stop-color="white" stop-opacity="0"/>
<stop offset="0.489583" stop-color="white"/>
<stop offset="1" stop-color="white" stop-opacity="0"/>
</linearGradient>
<linearGradient id="paint9_linear_529_430" x1="881.5" y1="1" x2="881.5" y2="794" gradientUnits="userSpaceOnUse">
<stop stop-color="white" stop-opacity="0"/>
<stop offset="0.489583" stop-color="white"/>
<stop offset="1" stop-color="white" stop-opacity="0"/>
</linearGradient>
<linearGradient id="paint10_linear_529_430" x1="1001.5" y1="1" x2="1001.5" y2="794" gradientUnits="userSpaceOnUse">
<stop stop-color="white" stop-opacity="0"/>
<stop offset="0.489583" stop-color="white"/>
<stop offset="1" stop-color="white" stop-opacity="0"/>
</linearGradient>
<linearGradient id="paint11_linear_529_430" x1="1121.5" y1="1" x2="1121.5" y2="794" gradientUnits="userSpaceOnUse">
<stop stop-color="white" stop-opacity="0"/>
<stop offset="0.489583" stop-color="white"/>
<stop offset="1" stop-color="white" stop-opacity="0"/>
</linearGradient>
<linearGradient id="paint12_linear_529_430" x1="1241.5" y1="1" x2="1241.5" y2="794" gradientUnits="userSpaceOnUse">
<stop stop-color="white" stop-opacity="0"/>
<stop offset="0.489583" stop-color="white"/>
<stop offset="1" stop-color="white" stop-opacity="0"/>
</linearGradient>
<linearGradient id="paint13_linear_529_430" x1="1361.5" y1="1" x2="1361.5" y2="794" gradientUnits="userSpaceOnUse">
<stop stop-color="white" stop-opacity="0"/>
<stop offset="0.489583" stop-color="white"/>
<stop offset="1" stop-color="white" stop-opacity="0"/>
</linearGradient>
<linearGradient id="paint14_linear_529_430" x1="1481.5" y1="1" x2="1481.5" y2="794" gradientUnits="userSpaceOnUse">
<stop stop-color="white" stop-opacity="0"/>
<stop offset="0.489583" stop-color="white"/>
<stop offset="1" stop-color="white" stop-opacity="0"/>
</linearGradient>
</defs>
</svg>
