<svg xmlns="http://www.w3.org/2000/svg" viewBox="0 0 74.84 74.41"><defs><style>.cls-1{fill:#edb23c;}</style></defs><title>scroll1</title><g id="Слой_2" data-name="Слой 2"><g id="Слой_1-2" data-name="Слой 1"><path class="cls-1" d="M61.58,20.44a3.32,3.32,0,0,1,0-1.54l.76,0a3.37,3.37,0,0,0,0,1.42,4.36,4.36,0,0,0,.56,1.48A2.79,2.79,0,0,0,64.11,23a1.29,1.29,0,0,0,1.21-.06,1.06,1.06,0,0,0,.53-.68,2,2,0,0,0,0-.88,12.65,12.65,0,0,0-.33-1.24,13.48,13.48,0,0,1-.38-1.54,2.32,2.32,0,0,1,.09-1.17,1.77,1.77,0,0,1,.85-1,2.14,2.14,0,0,1,1.17-.31,2.34,2.34,0,0,1,1.24.46,4.18,4.18,0,0,1,1.16,1.33,5.2,5.2,0,0,1,.55,1.31,4,4,0,0,1,.14,1.3l-.76.11A4.3,4.3,0,0,0,69,18.3a2.75,2.75,0,0,0-1.22-1.21,1.34,1.34,0,0,0-1.23.09,1.09,1.09,0,0,0-.54.68,2,2,0,0,0,0,.89c.07.32.18.74.34,1.25a13.91,13.91,0,0,1,.38,1.52,2.44,2.44,0,0,1-.09,1.17,1.75,1.75,0,0,1-.84,1,2,2,0,0,1-1.17.3,2.23,2.23,0,0,1-1.25-.47,4.44,4.44,0,0,1-1.15-1.34A5.36,5.36,0,0,1,61.58,20.44Z"/><path class="cls-1" d="M65.87,29.19A4.11,4.11,0,0,1,67,27.33a4.5,4.5,0,0,1,4.29-.92,4.08,4.08,0,0,1,1.82,1.22,4.61,4.61,0,0,1,1,2.09,4.78,4.78,0,0,1,.06,1.76,3.56,3.56,0,0,1-.61,1.5l-.67-.43a3.35,3.35,0,0,0,.45-2.64,3.61,3.61,0,0,0-.83-1.67,3.32,3.32,0,0,0-1.49-1A3.62,3.62,0,0,0,67.6,28a3.28,3.28,0,0,0-.95,1.51,3.69,3.69,0,0,0-.06,1.87,3.29,3.29,0,0,0,1.5,2.21l-.43.67a3.6,3.6,0,0,1-1.18-1.12,4.84,4.84,0,0,1-.61-3.95Z"/><path class="cls-1" d="M65.76,43.51,68.69,42c0-.22,0-.44,0-.67l.3-2.24L66.4,38.7l.11-.88,8.33,1.1L74.43,42a3.8,3.8,0,0,1-1.09,2.4,2.62,2.62,0,0,1-2.21.62,2.72,2.72,0,0,1-1.59-.71,2.77,2.77,0,0,1-.78-1.54l-3.12,1.66Zm4-.18a1.86,1.86,0,0,0,1.44.85,1.91,1.91,0,0,0,1.64-.45,2.89,2.89,0,0,0,.79-1.82L74,39.7l-4.18-.55-.29,2.21A2.9,2.9,0,0,0,69.8,43.33Z"/><path class="cls-1" d="M64.34,49.09a4.09,4.09,0,0,1,2.11-.65,4.49,4.49,0,0,1,3.83,2.09,4.15,4.15,0,0,1,.58,2.13,4.89,4.89,0,0,1-2.16,4,4,4,0,0,1-2.1.65,4.26,4.26,0,0,1-2.2-.55,4.16,4.16,0,0,1-2.23-3.67,4.91,4.91,0,0,1,2.17-4ZM63,53a3.3,3.3,0,0,0,.49,1.71,3.76,3.76,0,0,0,3.13,1.71,3.22,3.22,0,0,0,1.7-.51,3.6,3.6,0,0,0,1.26-1.36,3.67,3.67,0,0,0,.47-1.8A3.2,3.2,0,0,0,69.56,51a3.56,3.56,0,0,0-1.34-1.27,3.63,3.63,0,0,0-1.79-.45,3.36,3.36,0,0,0-1.71.52,3.71,3.71,0,0,0-1.26,1.37A3.66,3.66,0,0,0,63,53Z"/><path class="cls-1" d="M63.89,63.4l-.66.59L58.15,58.3l-3.51,3.13-.51-.57,4.17-3.72Z"/><path class="cls-1" d="M55.1,70l-.81.38L51.07,63.4l-4.26,2-.33-.7,5.07-2.36Z"/><path class="cls-1" d="M37,73.57l3,.07,0,.77-6.79-.16,0-.77,2.95.07.17-7.63.89,0Z"/><path class="cls-1" d="M29.14,65.35a4.1,4.1,0,0,1,.95,2,4.25,4.25,0,0,1-.24,2.24,4.19,4.19,0,0,1-1.3,1.85,4,4,0,0,1-2,.87,4.87,4.87,0,0,1-4.23-1.58,4.19,4.19,0,0,1-.94-2,4.3,4.3,0,0,1,.23-2.26,4.26,4.26,0,0,1,1.31-1.84,4.05,4.05,0,0,1,2-.88,4.61,4.61,0,0,1,2.3.27A4.53,4.53,0,0,1,29.14,65.35Zm-4-.79a3.24,3.24,0,0,0-1.62.73,3.73,3.73,0,0,0-1.25,3.34A3.18,3.18,0,0,0,23,70.24a3.56,3.56,0,0,0,1.53,1.05,3.67,3.67,0,0,0,1.84.21A3.22,3.22,0,0,0,28,70.78,3.43,3.43,0,0,0,29,69.27a3.5,3.5,0,0,0,.2-1.83,3.38,3.38,0,0,0-.76-1.61,3.73,3.73,0,0,0-1.53-1.06A3.68,3.68,0,0,0,25.1,64.56Z"/><path class="cls-1" d="M12.27,53.28l.6-.49,3.77,4.59-6.49,5.33L6.49,58.26l.59-.49,3.1,3.77,2.31-1.9L9.73,56.28l.58-.48,2.76,3.36,2.41-2Z"/><path class="cls-1" d="M9.34,44.87,6.87,48.73l4.42,1.19.37.95L6.48,49.45,3.75,53.7l-.37-1,2.29-3.6L1.56,48l-.34-.89,4.85,1.31L9,43.9Z"/><path class="cls-1" d="M.66,35.89a2.64,2.64,0,0,1,2.07-1,2.6,2.6,0,0,1,2.14.82,3.8,3.8,0,0,1,.88,2.48l.1,2.26,2.65-.12,0,.89-8.39.37L0,38.44A3.8,3.8,0,0,1,.66,35.89Zm3.68.47a1.9,1.9,0,0,0-1.57-.59,2,2,0,0,0-1.54.73,3,3,0,0,0-.46,1.93l.11,2.23,4.19-.19L5,38.24A3,3,0,0,0,4.34,36.36Z"/><path class="cls-1" d="M.74,29.1,1,28.24l7.36,2,1.25-4.54.74.2L8.84,31.32Z"/><path class="cls-1" d="M11.84,22a4,4,0,0,1-2.16.43,4.18,4.18,0,0,1-2.12-.77A4.3,4.3,0,0,1,6.09,20a4.16,4.16,0,0,1-.35-2.18A4.85,4.85,0,0,1,8.3,14.07a4.16,4.16,0,0,1,2.16-.43,4.33,4.33,0,0,1,2.13.78,4.26,4.26,0,0,1,1.47,1.72,4,4,0,0,1,.36,2.17A4.86,4.86,0,0,1,11.84,22Zm1.75-3.72a3.27,3.27,0,0,0-.3-1.75,3.58,3.58,0,0,0-1.21-1.39,3.43,3.43,0,0,0-1.72-.64,3.32,3.32,0,0,0-1.75.32,3.62,3.62,0,0,0-1.39,1.23,3.58,3.58,0,0,0-.66,1.74,3.29,3.29,0,0,0,.3,1.75A3.5,3.5,0,0,0,8.06,21a3.54,3.54,0,0,0,1.73.63,3.31,3.31,0,0,0,1.75-.33A3.65,3.65,0,0,0,12.94,20,3.57,3.57,0,0,0,13.59,18.29Z"/><path class="cls-1" d="M23.36,11.4l-3.11-1.16a4.39,4.39,0,0,1-.53.41l-1.87,1.27,1.5,2.2-.73.5L13.89,7.68l2.6-1.77A3.79,3.79,0,0,1,19,5.13,2.63,2.63,0,0,1,21,6.36,2.77,2.77,0,0,1,21.47,8a2.74,2.74,0,0,1-.63,1.61l3.32,1.23ZM20.54,8.51a1.91,1.91,0,0,0-.33-1.65,1.91,1.91,0,0,0-1.43-.92,2.88,2.88,0,0,0-1.88.62L15.06,7.82l2.37,3.48L19.27,10A2.93,2.93,0,0,0,20.54,8.51Z"/><path class="cls-1" d="M32.85,7.33l.2.74L27.31,9.6,25.14,1.49,30.71,0l.2.74L26.2,2,27,4.89l4.2-1.13.19.74L27.17,5.62l.8,3Z"/></g></g></svg>